
<svg width="174px" height="24px" viewBox="0 0 174 24" version="1.1" xmlns="http://www.w3.org/2000/svg" xmlns:xlink="http://www.w3.org/1999/xlink">
    <g id="-UI" stroke="none" stroke-width="1" fill="none" fill-rule="evenodd" opacity="0.300000012">
        <g id="Pix-Health_UI-Ver.2" transform="translate(-633.000000, -4388.000000)" fill="#021168" fill-rule="nonzero">
            <g id="Ресурс-8" transform="translate(633.000000, 4388.000000)">
                <ellipse id="Oval" cx="2.1" cy="12.7647059" rx="2.1" ry="2.14117647"></ellipse>
                <path d="M54.87,4.32235294 C54.5823004,3.78029046 54.229593,3.27681799 53.82,2.82352941 C53.4366398,2.34511953 52.9809194,1.93209189 52.47,1.6 C51.9533754,1.26819902 51.3993713,1.00117101 50.82,0.804705882 C50.1963281,0.619210861 49.5496585,0.526489844 48.9,0.529411765 L39.45,0.529411765 C39.2813622,0.523347202 39.118015,0.589967246 39,0.712941176 C38.8760055,0.855839071 38.811446,1.04234417 38.82,1.23294118 L38.82,10.6235294 L36.18,10.6235294 C35.4440782,10.6298555 34.763496,11.0230808 34.38,11.6635294 L34.38,11.8470588 L30.3,2.88470588 C29.9427973,2.10287398 29.1656884,1.61065883 28.32,1.63058824 C27.4703152,1.64326374 26.7173332,2.19165396 26.43,3.00705882 L22.35,14.2329412 L19.65,7.62588235 C19.3639953,6.92298083 18.738024,6.42398908 18,6.31058824 C17.2305232,6.24872001 16.4871458,6.61020548 16.05,7.25882353 L13.8,10.6235294 L9.87,10.6235294 C9.06538405,10.5249448 8.27694024,10.9072139 7.84408902,11.605772 C7.4112378,12.3043302 7.4112378,13.1944934 7.84408902,13.8930515 C8.27694024,14.5916096 9.06538405,14.9738787 9.87,14.8752941 L15,14.8752941 C15.6999314,14.8794914 16.354536,14.5227562 16.74,13.9270588 L17.37,12.9788235 L20.55,20.9011765 C20.8741702,21.6918709 21.6295121,22.2093171 22.47,22.2164706 C23.3327676,22.1942798 24.0943743,21.6361415 24.39,20.8094118 L28.59,9.4 L32.07,17.3223529 C32.3956151,18.0529903 33.085245,18.5451967 33.87,18.6070588 C34.6498908,18.6514486 35.3895031,18.2508253 35.79,17.5670588 L37.35,14.8752941 L38.79,14.8752941 L38.79,22.2776471 C38.7792472,22.4594243 38.8446724,22.6373123 38.97,22.7670588 C39.1079695,22.8728434 39.2775054,22.9268622 39.45,22.92 L43.83,22.92 C44.28,22.92 44.52,22.7058824 44.52,22.2776471 L44.52,15.0894118 L48.99,15.0894118 C49.9470815,15.1028255 50.8934216,14.8825775 51.75,14.4470588 C52.6020229,14.0439996 53.3668727,13.4721119 54,12.7647059 C54.6022387,12.0928843 55.0618457,11.301439 55.35,10.44 C55.6737771,9.59192012 55.8366623,8.68886544 55.83,7.77882353 C55.834207,7.17067279 55.7636575,6.56438115 55.62,5.97411765 C55.4258188,5.39892516 55.1745142,4.84546376 54.87,4.32235294 Z M49.77,8.75764706 C49.68731,9.05682372 49.532627,9.33019804 49.32,9.55294118 C49.1287985,9.80234561 48.8819541,10.0015958 48.6,10.1341176 C48.2981863,10.2730927 47.9711573,10.346033 47.64,10.3482353 L44.64,10.3482353 L44.64,5.30117647 L47.64,5.30117647 C48.2908065,5.31571745 48.9035401,5.61693525 49.32,6.12705882 C49.532627,6.34980196 49.68731,6.62317628 49.77,6.92235294 C49.8778209,7.21544209 49.9287648,7.52709891 49.92,7.84 C49.9287648,8.15290109 49.8778209,8.46455791 49.77,8.75764706 Z" id="Shape"></path>
                <path d="M58.02,5.36235294 C58.2679945,5.60027984 58.5515393,5.79645787 58.86,5.94352941 C59.1909147,6.09077205 59.5489975,6.16379286 59.91,6.15764706 C60.2809117,6.16628022 60.6492867,6.09324727 60.99,5.94352941 C61.3028335,5.80442376 61.5876501,5.6073658 61.83,5.36235294 C62.0633514,5.1094958 62.2557568,4.82039134 62.4,4.50588235 C62.516066,4.21289556 62.5869063,3.90334098 62.61,3.58823529 C62.6228072,3.17004048 62.5513338,2.75361279 62.4,2.36470588 C62.2635695,2.04573838 62.0703011,1.75533719 61.83,1.50823529 C61.5957281,1.25340057 61.3088007,1.05488216 60.99,0.927058824 C60.6792299,0.779215424 60.3426708,0.696025528 60,0.682352941 C59.6369041,0.686764942 59.2789197,0.770194369 58.95,0.927058824 C58.6353931,1.06286275 58.3499959,1.26032242 58.11,1.50823529 C57.8696989,1.75533719 57.6764305,2.04573838 57.54,2.36470588 C57.3955889,2.70210915 57.3239724,3.06721316 57.33,3.43529412 C57.3239724,3.80337507 57.3955889,4.16847909 57.54,4.50588235 C57.6566439,4.81445843 57.8184815,5.10322762 58.02,5.36235294 Z" id="Shape"></path>
                <path d="M62.34,8.32941176 L62.07,8.14588235 L61.8,8.14588235 L58.11,8.14588235 C57.9022397,8.13614393 57.7021313,8.22682489 57.57,8.39058824 C57.4489831,8.54716542 57.3853262,8.74188088 57.39,8.94117647 L57.39,22.1552941 C57.3612782,22.3602113 57.4266494,22.5672043 57.5672461,22.7165309 C57.7078428,22.8658575 57.908019,22.9409001 58.11,22.92 L61.8,22.92 C62.37,22.92 62.64,22.6447059 62.64,22.1552941 L62.64,8.88 C62.6666915,8.76949406 62.6666915,8.65403535 62.64,8.54352941 L62.34,8.32941176 Z" id="Shape"></path>
                <path d="M75,15.2117647 L79.65,8.84941176 C79.6442929,8.77815782 79.6442929,8.70654806 79.65,8.63529412 C79.65,8.39058824 79.5,8.26823529 79.23,8.26823529 L74.43,8.26823529 C74.0262873,8.28430031 73.6610706,8.51703643 73.47,8.88 C73.3150368,9.11548157 73.1747597,9.3606719 73.05,9.61411765 L72.54,10.4705882 C72.36,10.7764706 72.21,11.0823529 72.03,11.3576471 C71.85,11.6329412 71.73,11.8470588 71.61,12.0305882 L69.87,8.97176471 C69.7552456,8.80601434 69.6246022,8.6523162 69.48,8.51294118 C69.3868267,8.31350874 69.2105283,8.16745758 69,8.11529412 L64.2,8.11529412 C64.0825543,8.07959201 63.9574457,8.07959201 63.84,8.11529412 C63.809878,8.19397173 63.809878,8.28132238 63.84,8.36 C63.8528348,8.55196823 63.9265401,8.73447647 64.05,8.88 L66.24,11.9388235 C66.96,13.0094118 67.68,14.0494118 68.43,14.9976471 L63.99,21.6352941 L63.57,22.3388235 C63.5441661,22.428698 63.5441661,22.5242432 63.57,22.6141176 C63.57,22.8282353 63.57,22.92 63.93,22.92 L69,22.92 C69.1752679,22.9134222 69.3437069,22.849019 69.48,22.7364706 C69.6511389,22.648297 69.7807136,22.4941623 69.84,22.3082353 L71.52,19.4635294 L73.17,22.2776471 C73.2553925,22.4557558 73.3783217,22.6124303 73.53,22.7364706 C73.6835661,22.8598603 73.874537,22.9247655 74.07,22.92 L79.2,22.92 C79.5,22.92 79.65,22.92 79.65,22.5835294 C79.6269678,22.356318 79.5552794,22.1370358 79.44,21.9411765 L75,15.2117647 Z" id="Shape"></path>
                <path d="M104.46,0.529411765 L100.14,0.529411765 C99.9617185,0.518448156 99.7872514,0.58515616 99.66,0.712941176 C99.5454835,0.849457827 99.4817586,1.02272294 99.48,1.20235294 L99.48,8.32941176 L92.13,8.32941176 L92.13,1.20235294 C92.1350353,1.00861945 92.0450275,0.825074033 91.89,0.712941176 C91.7517099,0.603998691 91.584447,0.540045227 91.41,0.529411765 L87,0.529411765 C86.8248013,0.522057299 86.6570081,0.601896143 86.55,0.743529412 C86.429391,0.863858422 86.3640521,1.03040853 86.37,1.20235294 L86.37,22.3388235 C86.3690988,22.5041706 86.4373159,22.6620812 86.5575706,22.7730164 C86.6778253,22.8839516 86.8387314,22.9374078 87,22.92 L91.35,22.92 C91.547083,22.9370463 91.7423647,22.8706761 91.89,22.7364706 C92.0232282,22.6098629 92.0992246,22.4327509 92.1,22.2470588 L92.1,13.6823529 L99.45,13.6823529 L99.45,22.2470588 C99.4351876,22.4294349 99.5012276,22.6089947 99.63,22.7364706 C99.7572514,22.8642556 99.9317185,22.9309636 100.11,22.92 L104.49,22.92 C104.678417,22.9401199 104.865711,22.87272 105,22.7364706 C105.148129,22.6212036 105.227506,22.4362123 105.21,22.2470588 L105.21,1.17176471 C105.233816,0.981632956 105.153116,0.793559226 105,0.682352941 C104.839706,0.575969579 104.651142,0.522563485 104.46,0.529411765 Z" id="Shape"></path>
                <path d="M119.58,9.88941176 C118.920308,9.23894985 118.146979,8.72020495 117.3,8.36 C116.424668,7.99250007 115.486627,7.80537163 114.54,7.80941176 C113.504211,7.77817533 112.475967,7.99834042 111.54,8.45176471 C109.85153,9.36119134 108.580444,10.9098131 108,12.7647059 C107.627445,13.739044 107.444049,14.777889 107.46,15.8235294 C107.439933,16.8754501 107.644672,17.9192187 108.06,18.8823529 C108.435553,19.8084915 108.985987,20.6503316 109.68,21.36 C111.088076,22.7988243 112.996532,23.6123549 114.99,23.6235294 C116.679754,23.6319636 118.321172,23.0489022 119.64,21.9717647 C119.7638,21.8864449 119.874936,21.7834317 119.97,21.6658824 C120.013429,21.5370315 120.013429,21.3970862 119.97,21.2682353 C119.960286,21.1139912 119.908316,20.9656216 119.82,20.84 L118.32,18.6682353 C118.254071,18.5626518 118.160568,18.4779085 118.05,18.4235294 C117.982286,18.3977332 117.907714,18.3977332 117.84,18.4235294 C117.724544,18.3759095 117.595456,18.3759095 117.48,18.4235294 C117.333456,18.5459555 117.172145,18.6487516 117,18.7294118 C116.692587,18.9142691 116.358472,19.0484709 116.01,19.1270588 C115.631221,19.2476599 115.236816,19.3095274 114.84,19.3105882 C114.535626,19.2241688 114.25043,19.0787746 114,18.8823529 C113.720782,18.793275 113.457423,18.6590134 113.22,18.4847059 C112.9689,18.2954099 112.73767,18.0801475 112.53,17.8423529 C112.338674,17.5704373 112.187093,17.2716328 112.08,16.9552941 L119.4,16.9552941 C119.769039,16.993741 120.140961,16.993741 120.51,16.9552941 C120.762813,16.8839213 120.99796,16.7588304 121.2,16.5882353 C121.370646,16.4201169 121.494817,16.2091075 121.56,15.9764706 C121.592701,15.6817242 121.592701,15.3841581 121.56,15.0894118 C121.57149,14.110547 121.377127,13.140536 120.99,12.2447059 C120.674278,11.3737921 120.19538,10.5738312 119.58,9.88941176 Z M112.23,13.7129412 C112.34222,13.4881183 112.472674,13.2732527 112.62,13.0705882 C112.787462,12.8731684 112.979019,12.6984152 113.19,12.5505882 C113.423371,12.3514293 113.701772,12.2147563 114,12.1529412 C114.258017,12.1066404 114.521983,12.1066404 114.78,12.1529412 C115.086153,12.1537712 115.390131,12.2054276 115.68,12.3058824 C115.936641,12.3908644 116.179337,12.5145921 116.4,12.6729412 L116.94,13.1929412 C117.080771,13.4000624 117.210945,13.6144662 117.33,13.8352941 L112.23,13.7129412 Z" id="Shape"></path>
                <path d="M137.31,8.11529412 L134.58,8.11529412 L134.37,8.11529412 C134.355332,8.19617725 134.355332,8.27911687 134.37,8.36 C134.300142,8.51918936 134.240027,8.68263989 134.19,8.84941176 L133.74,10.2564706 C133.604689,9.9318541 133.433588,9.62399128 133.23,9.33882353 C133.008894,9.03683227 132.746184,8.76897118 132.45,8.54352941 C132.116623,8.30223801 131.753492,8.10682781 131.37,7.96235294 C130.925621,7.81008219 130.458687,7.73763378 129.99,7.74823529 C128.960823,7.72197429 127.938013,7.92011869 126.99,8.32941176 C126.130162,8.69288498 125.353758,9.23452485 124.71,9.92 C124.056779,10.6095336 123.555591,11.4334145 123.24,12.3364706 C122.871765,13.312046 122.688521,14.3500301 122.7,15.3952941 C122.684049,16.4409346 122.867445,17.4797795 123.24,18.4541176 C123.566094,19.3590422 124.077432,20.1827973 124.74,20.8705882 C125.376667,21.5720426 126.154393,22.1250388 127.02,22.4917647 C127.971295,22.8898994 128.991783,23.0875939 130.02,23.0729412 L130.2,23.0729412 C130.620187,23.0902565 131.03925,23.0173062 131.43,22.8588235 C131.631297,22.7557374 131.822208,22.6327976 132,22.4917647 C132.231771,22.2991887 132.434005,22.0723685 132.6,21.8188235 C132.6,21.5741176 132.93,21.36 133.05,21.1458824 L133.5,21.9411765 C133.512894,22.0631762 133.512894,22.1862355 133.5,22.3082353 C133.549409,22.4067573 133.609809,22.4991336 133.68,22.5835294 L133.89,22.7670588 L134.28,22.7670588 L137.28,22.7670588 C137.498458,22.7697592 137.710875,22.6939555 137.88,22.5529412 C138.065288,22.4055175 138.175502,22.1807674 138.18,21.9411765 L138.18,8.97176471 C138.187212,8.7363273 138.087606,8.5106386 137.91,8.36 C137.743744,8.21018556 137.531725,8.12371502 137.31,8.11529412 Z M132.84,16.7105882 C132.711187,17.0356423 132.528527,17.3356983 132.3,17.5976471 C132.055669,17.8619756 131.759149,18.0704817 131.43,18.2094118 C131.093541,18.3339677 130.737936,18.396124 130.38,18.3929412 C130.022064,18.396124 129.666459,18.3339677 129.33,18.2094118 C129.02785,18.0684626 128.761117,17.8592601 128.55,17.5976471 C128.328012,17.3364056 128.155127,17.0357007 128.04,16.7105882 C127.8,15.9968627 127.8,15.2219608 128.04,14.5082353 C128.16208,14.1771333 128.334156,13.8675159 128.55,13.5905882 C128.76217,13.3376894 129.029236,13.1386989 129.33,13.0094118 C129.657974,12.8497615 130.016569,12.76619 130.38,12.7647059 C130.743096,12.7691179 131.10108,12.8525473 131.43,13.0094118 C131.75774,13.1368448 132.054538,13.3351113 132.3,13.5905882 C132.525236,13.8663189 132.70738,14.1758454 132.84,14.5082353 C133.108191,15.2168888 133.108191,16.0019347 132.84,16.7105882 Z" id="Shape"></path>
                <path d="M145.95,0.774117647 L145.68,0.529411765 L141.87,0.529411765 C141.66658,0.507150318 141.465224,0.586990583 141.33,0.743529412 C141.208983,0.900106594 141.145326,1.09482206 141.15,1.29411765 L141.15,22.1552941 C141.121278,22.3602113 141.186649,22.5672043 141.327246,22.7165309 C141.467843,22.8658575 141.668019,22.9409001 141.87,22.92 L145.44,22.92 C145.646,22.9351556 145.849897,22.8695045 146.01,22.7364706 C146.160647,22.5838097 146.2375,22.3711186 146.22,22.1552941 L146.22,1.32470588 C146.250077,1.225051 146.250077,1.11847842 146.22,1.01882353 C146.162297,0.906398604 146.066268,0.81936587 145.95,0.774117647 Z" id="Shape"></path>
                <path d="M155.55,7.84 L154.23,7.84 L154.23,3.31294118 C154.240165,3.11284542 154.175881,2.91621085 154.05,2.76235294 C153.931985,2.63937901 153.768638,2.57275897 153.6,2.57882353 L150,3.16 C149.778615,3.18384946 149.57462,3.29332065 149.43,3.46588235 C149.304594,3.6101757 149.230603,3.7933901 149.22,3.98588235 L149.22,7.84 L148.41,7.84 C147.81,7.84 147.54,8.11529412 147.54,8.69647059 L147.54,11.0517647 C147.54,11.6635294 147.81,11.9694118 148.41,11.9694118 L149.22,11.9694118 L149.22,22.1552941 C149.199731,22.3693066 149.276556,22.5810206 149.42856,22.7300445 C149.580565,22.8790684 149.791059,22.9490401 150,22.92 L153.51,22.92 C154.05,22.92 154.32,22.6447059 154.32,22.1552941 L154.32,11.9694118 L155.64,11.9694118 C155.880412,11.98168 156.112912,11.8800834 156.27,11.6941176 C156.423531,11.5166237 156.508792,11.2884243 156.51,11.0517647 L156.51,8.69647059 C156.525344,8.45696747 156.437743,8.22250564 156.27,8.05411765 C156.070117,7.88286315 155.808838,7.80516249 155.55,7.84 Z" id="Shape"></path>
                <path d="M173.04,14.2941176 C172.980243,13.4386222 172.808728,12.5950913 172.53,11.7858824 C172.277384,11.0275579 171.891044,10.3226571 171.39,9.70588235 C170.896899,9.124948 170.28163,8.66490383 169.59,8.36 C168.803676,8.01784852 167.954718,7.85098505 167.1,7.87058824 C166.636055,7.87286014 166.173589,7.92411391 165.72,8.02352941 C165.322813,8.13298918 164.932162,8.26575951 164.55,8.42117647 L163.62,8.97176471 L162.93,9.70588235 L162.93,1.32470588 C162.93,0.988235294 162.93,0.774117647 162.69,0.682352941 C162.482459,0.556152521 162.240196,0.50245399 162,0.529411765 L158.4,0.529411765 C158.178253,0.50202559 157.956598,0.581126006 157.8,0.743529412 C157.674119,0.897387323 157.609835,1.09402189 157.62,1.29411765 L157.62,22.1552941 C157.603281,22.3562415 157.668375,22.5553523 157.8,22.7058824 C157.981454,22.8673147 158.220417,22.9448393 158.46,22.92 L162,22.92 L162.39,22.92 C162.509141,22.8663725 162.612534,22.7820369 162.69,22.6752941 C162.741669,22.5479798 162.741669,22.4049614 162.69,22.2776471 L162.69,14.8447059 C162.711767,14.5461087 162.815754,14.2598398 162.99,14.0188235 C163.172093,13.77606 163.395679,13.568814 163.65,13.4070588 C163.906214,13.2202355 164.189687,13.07572 164.49,12.9788235 C164.833976,12.8401777 165.200132,12.7675846 165.57,12.7647059 C166.146753,12.8081045 166.698911,13.0205514 167.16,13.3764706 C167.364281,13.5714585 167.53648,13.798673 167.67,14.0494118 C167.815995,14.3208457 167.888478,14.627019 167.88,14.9364706 L167.88,22.1858824 C167.863281,22.3868297 167.928375,22.5859405 168.06,22.7364706 C168.216848,22.8755384 168.423266,22.942001 168.63,22.92 L172.35,22.92 C172.543238,22.932324 172.731301,22.8533677 172.86,22.7058824 C173.020614,22.5711603 173.109551,22.3671281 173.1,22.1552941 L173.1,15.6094118 C173.1,15.1505882 173.07,14.7223529 173.04,14.2941176 Z" id="Shape"></path>
            </g>
        </g>
    </g>
</svg>