

<svg width="40px" height="41px" viewBox="0 0 40 41" version="1.1" xmlns="http://www.w3.org/2000/svg" xmlns:xlink="http://www.w3.org/1999/xlink">
    <g id="-UI" stroke="none" stroke-width="1" fill="none" fill-rule="evenodd">
        <g id="Pix-Health_UI-Ver.2" transform="translate(-700.000000, -749.000000)" fill-rule="nonzero">
            <g id="Treating" transform="translate(200.000000, 749.000000)">
                <g id="icon" transform="translate(500.000000, 0.000000)">
                    <path d="M39.5573018,16.1096825 C39.9832788,15.5563869 40.111016,14.8361857 39.90049,14.1747385 C39.6899639,13.5132913 39.1669304,12.9915201 38.4952708,12.7729107 C35.2982373,11.840503 33.1272217,8.93783135 33.1851155,5.67317501 C33.2000066,5.10112516 32.9733385,4.54836101 32.5585172,4.14512063 C31.9662143,3.55865061 31.0846539,3.35301765 30.2857707,3.61497931 C27.1522826,4.63833836 23.703539,3.53706362 21.7895223,0.901903165 C21.376917,0.335945856 20.7103459,0 20,0 C19.2896541,0 18.623083,0.335945856 18.2104777,0.901903165 C16.296461,3.53706362 12.8477174,4.63833836 9.71422927,3.61497931 C8.91534607,3.35301765 8.03378567,3.55865061 7.44148282,4.14512063 C7.02666149,4.54836101 6.79999345,5.10112516 6.8148845,5.67317501 C6.87277829,8.93783135 4.70176269,11.840503 1.50472925,12.7729107 C0.833069594,12.9915201 0.310036105,13.5132913 0.0995100289,14.1747385 C-0.111016047,14.8361857 0.0167212488,15.5563869 0.442698194,16.1096825 C2.44647601,18.705297 2.44647601,22.287387 0.442698194,24.8830015 C0.0167212488,25.4362971 -0.111016047,26.1564983 0.0995100289,26.8179455 C0.310036105,27.4793927 0.833069594,28.0011639 1.50472925,28.2197733 C4.70176269,29.1521811 6.87277829,32.0548527 6.8148845,35.319509 C6.79999345,35.8915589 7.02666149,36.444323 7.44148282,36.8475634 C8.03248828,37.436286 8.915466,37.6422496 9.71422927,37.3777047 C12.8477174,36.3543457 16.296461,37.4556204 18.2104777,40.0907808 C18.6225368,40.6610039 19.2917277,41 20.0053102,41 C20.7188926,41 21.3880835,40.6610039 21.8001426,40.0907808 C23.7141594,37.4556204 27.1629029,36.3543457 30.296391,37.3777047 C31.0982842,37.6466369 31.9867084,37.4403668 32.5797578,36.8475634 C32.9840939,36.4433562 33.2026871,35.895333 33.1851155,35.3299039 C33.1272217,32.0652476 35.2982373,29.162576 38.4952708,28.2301683 C39.1669304,28.0115588 39.6899639,27.4897877 39.90049,26.8283404 C40.111016,26.1668932 39.9832788,25.4466921 39.5573018,24.8933965 C37.5588688,22.299883 37.5588688,18.7239858 39.5573018,16.1304723 L39.5573018,16.1096825 Z" id="Shape" fill="#FFA400"></path>
                    <polyline id="Path-2" stroke="#FFFFFF" stroke-width="4" stroke-linecap="round" points="13 19.1702914 18.2702616 24 27 16"></polyline>
                </g>
            </g>
        </g>
    </g>
</svg>