
<svg width="20px" height="20px" viewBox="0 0 20 20" version="1.1" xmlns="http://www.w3.org/2000/svg" xmlns:xlink="http://www.w3.org/1999/xlink">
    <g id="-UI" stroke="none" stroke-width="1" fill="none" fill-rule="evenodd">
        <g id="Mobile" transform="translate(-20.000000, -980.000000)" fill="#2FBF61" fill-rule="nonzero">
            <g id="requieries" transform="translate(10.000000, 980.000000)">
                <g id="must-be">
                    <path d="M20,0 C14.4771525,0 10,4.4771525 10,10 C10,15.5228475 14.4771525,20 20,20 C25.5228475,20 30,15.5228475 30,10 C30,7.3478351 28.9464316,4.80429597 27.0710678,2.92893219 C25.195704,1.0535684 22.6521649,0 20,0 Z M18.4999729,14.1701924 C18.3037807,14.3678965 18.0397136,14.4799832 17.7637633,14.4826861 C17.4785157,14.48603 17.2036888,14.3735926 16.9999459,14.1701924 L14.137931,11.2171268 L15.671701,9.68278262 L17.7944387,11.8702386 L24.3896498,5.51724138 L25.862069,7.0828349 L18.4999729,14.1701924 Z" id="Shape-Copy"></path>
                </g>
            </g>
        </g>
    </g>
</svg>