<svg xmlns="http://www.w3.org/2000/svg" xmlns:xlink="http://www.w3.org/1999/xlink" width="83" height="70" viewBox="0 0 83 70"><defs><path id="zitba" d="M120 4085.438h18.673l5.662-7.75 9.46 21.312 11.353-31 11.352 25.188 5.676-7.75H195"/><path id="zitbb" d="M191.316 4089.815l-28.239 28.882a4.28 4.28 0 0 1-6.15 0l-28.238-28.882c-8.903-9.107-8.92-23.862-.044-32.982 8.647-8.804 22.407-9.089 31.357-.89a22.467 22.467 0 0 1 31.32.851c8.913 9.159 8.897 23.914-.006 33.02z"/><filter id="zitbc" width="97" height="53" x="109" y="4057" filterUnits="userSpaceOnUse"><feOffset in="SourceGraphic" result="FeOffset1027Out"/><feGaussianBlur in="FeOffset1027Out" result="FeGaussianBlur1028Out" stdDeviation="0.4 0.4"/></filter></defs><g><g transform="translate(-116 -4050)"><use fill="#eab3b3" xlink:href="#zitbb"/></g><g transform="translate(-116 -4050)"><g filter="url(#zitbc)"><use fill="none" stroke="#ffcbcb" stroke-opacity=".5" stroke-width="6" xlink:href="#zitba"/></g><use fill="#fff" fill-opacity="0" stroke="#fff" stroke-dasharray=".192 .96" stroke-linecap="round" stroke-linejoin="round" stroke-miterlimit="50" stroke-width="6" xlink:href="#zitba"/></g></g></svg>